<svg xmlns="http://www.w3.org/2000/svg" width="54" height="54" viewBox="0 0 54 54" fill="none">
  <path d="M27 2C17.1 2 9 10.1 9 20c0 12.2 14.7 27.9 17.1 30.4a1.3 1.3 0 0 0 1.9 0C30.3 47.9 45 32.2 45 20 45 10.1 36.9 2 27 2z" fill="#16A34A" stroke="#0f172a" stroke-opacity="0.15" stroke-width="1.5"/>
  <circle cx="27" cy="20" r="12.5" fill="#ffffff" fill-opacity="0.12"/>
  <g transform="translate(14 7) scale(1.2)">
    <path d="M3 20l3-3C2 11 7 3 19 4c2 10-6 16-13 13ZM6 17c4-4 8-8 12-12M9 14l-4-2m6 0l5 2m-3-4l-4-4m6 2l3 1" fill="none" stroke="#ffffff" stroke-width="1.8" stroke-linecap="round" stroke-linejoin="round"/>
  </g>
</svg>
